<?xml version="1.0" standalone="no"?>
<!DOCTYPE svg PUBLIC "-//W3C//DTD SVG 20010904//EN"
 "http://www.w3.org/TR/2001/REC-SVG-20010904/DTD/svg10.dtd">
<svg version="1.0" xmlns="http://www.w3.org/2000/svg"
 width="1204.000000pt" height="1204.000000pt" viewBox="0 0 1204.000000 1204.000000"
 preserveAspectRatio="xMidYMid meet">
<metadata>
Created by potrace 1.11, written by Peter Selinger 2001-2013
</metadata>
<g transform="translate(0.000000,1204.000000) scale(0.100000,-0.100000)"
fill="#000000" stroke="none">
<path d="M7580 10168 c-52 -106 -98 -194 -102 -196 -5 -2 -8 -8 -8 -13 0 -12
-122 -262 -131 -269 -4 -3 -11 -18 -14 -33 -4 -15 -11 -27 -16 -27 -5 0 -8 -3
-7 -7 2 -5 -30 -74 -71 -155 -40 -81 -72 -150 -71 -154 1 -4 -4 -10 -12 -15
-7 -5 -13 -12 -14 -16 -3 -22 -27 -73 -35 -73 -5 0 -9 -5 -9 -12 0 -17 -271
-562 -284 -570 -6 -4 -8 -8 -4 -8 5 0 -14 -43 -41 -95 -28 -52 -47 -95 -43
-95 4 0 3 -4 -3 -8 -12 -9 -78 -138 -75 -148 1 -4 -2 -10 -7 -13 -6 -4 -238
-462 -248 -491 -14 -38 -31 -70 -37 -70 -4 0 -8 -4 -8 -10 0 -14 -804 -1624
-815 -1632 -5 -4 -7 -8 -2 -8 4 0 -9 -29 -28 -65 l-36 -64 187 -368 c216 -425
256 -506 256 -513 0 -3 5 -12 12 -20 7 -8 42 -73 77 -145 35 -71 67 -131 71
-133 5 -2 8 -9 8 -15 0 -7 32 -73 70 -147 38 -74 70 -140 70 -147 0 -6 3 -13
8 -15 4 -1 43 -75 87 -163 44 -88 89 -175 100 -195 11 -19 20 -40 21 -48 2 -8
10 -22 20 -33 9 -10 13 -19 8 -19 -5 0 -4 -4 1 -8 13 -9 165 -313 165 -329 0
-7 3 -13 8 -13 4 0 34 -55 67 -123 33 -67 62 -124 65 -127 3 -3 57 -108 120
-235 63 -126 119 -236 124 -244 6 -7 11 -19 12 -27 1 -7 13 -28 26 -46 12 -18
22 -35 22 -38 -2 -8 19 -53 44 -94 13 -22 25 -44 27 -50 3 -17 18 -50 27 -61
4 -5 52 -98 107 -205 54 -107 155 -308 225 -446 l128 -251 2194 0 c1207 0
2194 2 2194 5 0 3 -171 349 -380 768 -209 419 -380 767 -380 772 0 6 -3 12 -7
14 -9 4 -153 295 -153 309 0 5 -4 9 -10 9 -5 0 -10 4 -10 10 0 14 -563 1144
-572 1148 -5 2 -8 8 -8 13 0 6 -352 715 -782 1577 -430 862 -781 1570 -780
1575 1 4 -2 7 -6 7 -4 0 -13 15 -20 33 -6 17 -39 84 -72 147 -33 63 -60 120
-60 126 0 6 -7 17 -15 24 -8 6 -14 15 -13 18 1 4 -25 59 -57 122 -32 63 -60
117 -60 120 -3 9 -60 125 -70 140 -5 8 -10 17 -10 20 -2 9 -195 395 -204 406
-4 6 -14 27 -22 47 -7 20 -17 37 -21 37 -4 0 -7 3 -6 8 2 8 -48 114 -59 126
-5 4 -8 11 -8 14 -1 12 -264 533 -277 549 -7 9 -12 19 -10 22 3 8 -221 455
-230 459 -5 2 -8 11 -8 21 0 9 -6 25 -12 34 -11 15 -26 -9 -108 -175z"/>
<path d="M2792 7262 c-66 -133 -118 -242 -114 -242 4 0 2 -4 -4 -8 -6 -4 -43
-73 -83 -154 -40 -80 -75 -149 -79 -153 -4 -4 -7 -10 -7 -14 0 -3 -134 -275
-297 -603 -164 -327 -298 -600 -298 -606 0 -6 -3 -12 -8 -14 -8 -3 -130 -248
-130 -262 0 -5 -4 -12 -9 -15 -8 -6 -82 -152 -81 -161 0 -3 -14 -29 -31 -58
-17 -29 -31 -55 -31 -57 0 -5 -19 -45 -86 -175 -21 -41 -38 -77 -39 -80 0 -3
-9 -21 -20 -40 -11 -19 -20 -37 -20 -40 -1 -3 -41 -84 -90 -180 -49 -96 -89
-178 -89 -182 -1 -4 -7 -13 -13 -19 -7 -7 -13 -17 -13 -23 0 -8 -76 -164 -109
-223 -6 -10 -35 -69 -65 -131 -30 -62 -61 -121 -68 -129 -7 -9 -13 -19 -12
-22 1 -5 -119 -253 -145 -301 -5 -8 -24 -46 -42 -85 -19 -38 -37 -71 -41 -73
-5 -2 -8 -9 -8 -15 0 -15 -162 -340 -173 -348 -5 -3 -9 -10 -9 -15 -2 -18 -30
-79 -40 -85 -5 -3 -9 -9 -9 -13 2 -10 -200 -415 -210 -422 -5 -3 -7 -9 -4 -14
3 -5 -2 -16 -11 -24 -8 -9 -13 -16 -9 -16 8 0 -26 -64 -39 -72 -6 -4 -8 -8 -4
-8 3 0 -44 -101 -107 -225 -62 -124 -110 -225 -106 -225 3 0 0 -4 -7 -8 -7 -5
-15 -20 -17 -34 l-5 -25 2904 0 c2651 0 2904 2 2901 16 -2 9 -139 287 -304
618 -166 331 -301 607 -301 613 0 5 -4 10 -10 10 -5 0 -9 3 -8 8 2 9 -464 945
-475 953 -5 3 -8 9 -8 13 2 9 -262 540 -272 547 -5 3 -8 9 -7 13 0 4 -73 155
-164 336 -90 182 -162 330 -158 330 4 0 2 4 -3 8 -13 8 -178 338 -175 348 1 4
-2 10 -7 13 -14 10 -45 71 -36 71 4 0 3 4 -2 8 -12 8 -175 334 -175 349 0 6
-3 13 -7 15 -8 3 -128 236 -128 248 0 3 -5 12 -10 20 -18 29 -75 148 -75 158
0 6 -3 12 -7 14 -9 3 -62 108 -64 123 0 6 -5 15 -9 20 -12 14 -182 354 -179
357 1 2 -10 22 -24 46 -15 23 -24 42 -20 42 5 0 4 4 -2 8 -11 8 -215 417 -215
431 0 5 -3 11 -7 13 -5 2 -17 23 -29 47 l-21 45 -121 -242z"/>
</g>
</svg>
